<?xml version="1.0" encoding="UTF-8" standalone="no"?>
<!-- Created with Inkscape (http://www.inkscape.org/) -->

<svg
   width="1000"
   height="198.98599"
   viewBox="0 0 26458333 5264837.7"
   version="1.1"
   id="svg1"
   sodipodi:docname="bch-inverse.svg"
   inkscape:version="1.3.2 (091e20e, 2023-11-25, custom)"
   xml:space="preserve"
   xmlns:inkscape="http://www.inkscape.org/namespaces/inkscape"
   xmlns:sodipodi="http://sodipodi.sourceforge.net/DTD/sodipodi-0.dtd"
   xmlns="http://www.w3.org/2000/svg"
   xmlns:svg="http://www.w3.org/2000/svg"
   xmlns:rdf="http://www.w3.org/1999/02/22-rdf-syntax-ns#"
   xmlns:cc="http://creativecommons.org/ns#"
   xmlns:dc="http://purl.org/dc/elements/1.1/"><title
     id="title2">Banco de Chile</title><sodipodi:namedview
     id="namedview1"
     pagecolor="#ffffff"
     bordercolor="#666666"
     borderopacity="1.0"
     inkscape:showpageshadow="true"
     inkscape:pageopacity="0.0"
     inkscape:pagecheckerboard="false"
     inkscape:deskcolor="#d1d1d1"
     inkscape:document-units="px"
     showgrid="false"
     showborder="true"
     borderlayer="true"
     showguides="true"
     inkscape:zoom="0.5"
     inkscape:cx="480"
     inkscape:cy="22"
     inkscape:window-width="1366"
     inkscape:window-height="705"
     inkscape:window-x="-8"
     inkscape:window-y="-8"
     inkscape:window-maximized="1"
     inkscape:current-layer="layer1" /><defs
     id="defs1" /><g
     inkscape:label="Capa 1"
     inkscape:groupmode="layer"
     id="layer1"
     transform="translate(-14480920,-14460895)"><g
       style="fill:none;stroke-width:0.155789"
       id="g2"
       transform="matrix(169833.9,0,0,169833.9,15057461,15122349)"><path
         fill-rule="evenodd"
         clip-rule="evenodd"
         d="M 6.64937,0 C 7.0089213,-0.04424436 7.3753225,-0.03210926 7.73616,0 8.4004658,0.0591135 9.0536884,0.21215081 9.7055149,0.35328502 10.201899,0.46076267 11.1822,0.728703 11.1822,0.728703 c 0.113963,0.0305363 0.3122,0.0289533 0.4642,0 0.201931,-0.038464 0.4642,-0.134945 0.5735,-0.226708 0.0764,0.026989 0.1365,0.043182 0.2293,0.113354 L 7.91092,3.75687 C 7.3558609,4.141097 6.52923,4.840148 6.52923,5.2375527 V 12.9547 L 2.051,15.9829 C 2.11653,15.5618 2.6845,15.1786 2.6845,14.5794 V 6.78503 c 0,-0.60455 4.30893,-2.79606 4.30893,-3.4222 0,-0.3107197 -0.8203446,-0.5976347 -1.283046,-0.7954179 C 5.3160808,2.3988659 4.8902609,2.2995673 4.46487,2.24548 3.8183649,2.1632786 3.1565752,2.1659178 2.50974,2.24548 1.8244092,2.3297772 0.811292,2.76367 0.5,2.74748 1.1119875,2.3521134 2.6431517,1.205275 3.8503878,0.69944526 4.7373602,0.32780548 5.6948854,0.1174535 6.64937,0 Z m 9.18583,0.167332 c 0.6936,0 1.1086,0.723305 2.2992,2.245488 0.2949,0.37244 1.6657,2.01337 1.6657,2.80145 v 0.62075 c 0,1.59775 -4.309,3.20089 -4.309,3.86482 0,0.45886 2.2665,0.2429 3.2768,0.90146 0.9666,0.6261 1.3762,1.954 1.3762,2.6881 v 1.9108 c 0,1.1389 -1.6001,1.5708 -3.5607,3.0282 -0.8629,0.6369 -3.801,2.5801 -4.0195,2.5801 0,0 -1.5216,-0.788188 -2.324634,-1.080054 C 9.3724016,19.413381 8.4812854,19.13161 7.56686,19.011 c -0.7219142,-0.09522 -1.4612396,-0.08439 -2.1845,0 -1.1334153,0.132241 -3.1566,0.7881 -3.33136,0.7881 0,0 1.1233483,-1.078122 2.7339388,-1.993391 1.1878753,-0.675048 2.6884067,-1.048898 4.1035512,-1.261509 0.7560844,-0.113594 1.537848,-0.115062 2.29371,0 0.872802,0.132863 2.1026,0.6532 2.5286,0.7881 V 3.08214 c 0,-0.13494 -0.1802,-0.38864 -0.4588,-0.38864 -0.6389,0 -1.0922,1.13354 -1.0922,1.17672 v 8.46918 l -4.99707,3.6435 c 0,0 0.025668,-0.177348 0.1143676,-0.291298 C 7.6201121,15.250942 7.79624,15.1408 7.79624,14.7522 V 5.55433 c 0,-0.11335 2.465936,-2.0312378 3.79006,-2.92021 1.359682,-0.9128449 3.2604,-2.466788 4.2489,-2.466788 z M 14.519,4.03755 c 0,0 1.835,1.9594 1.835,3.14152 0,0.89603 -0.7045,1.24689 -1.835,1.90542 z m 0,6.61775 c 0.1748,0.0431 1.2015,0.6477 1.2015,1.0687 v 6.445 h -0.2294 c -0.3604,0 -0.9721,-0.2753 -0.9721,-0.6154 z m 43.8812,-2.41286 4.0796,1.96476 v 8.6365 l -3.8502,1.8515 -4.1342,-1.7381 V 9.92655 Z m -18.8413,-0.2537 2.4685,2.40746 v 7.4057 l 1.1468,1.1228 -1.895,1.792 -2.0098,-1.8514 v -6.8984 c -0.0327,-0.0216 -1.256,-1.2091 -1.4909,-1.2901 l -1.3817,1.2361 v 5.943 l 1.0377,1.0094 -1.9552,1.8514 -1.7803,-1.6787 v -7.4597 c 0,0 -0.8465,-0.6909 -1.207,-1.1228 l 2.4139,-2.41278 2.3538,2.18608 z m 9.4753,0.31307 4.4837,1.85149 c -0.2076,0.2483 -1.5729,1.2253 -2.0699,1.344 0,0 -3.659,-1.398 -3.7355,-1.4034 v 7.2924 l 3.0802,1.4952 c 0,0 1.7749,-0.5992 2.2063,-0.5992 0.0492,0 0.1256,0.0162 0.2294,0 v 0.1674 l -3.5007,2.2455 H 49.2635 L 44.8399,18.7304 V 10.2612 Z M 26.4027,8.09669 c 2.7907,1.36565 4.0195,1.53298 4.0195,2.13211 v 7.1791 l 1.7804,1.7381 -1.6657,1.5707 c -1.2179,-0.9716 -1.6657,-1.398 -1.6657,-1.398 l -3.0583,1.4952 -4.1778,-1.8676 v -4.7339 l 4.0795,-1.9648 2.2391,0.9014 V 11.1842 L 24.3766,9.96973 22.5799,10.1802 22.4979,9.89416 Z m 30.7633,1.82986 2.6705,1.23605 v 7.6811 L 57.1332,17.667 Z m -33.0024,3.95115 3.7901,1.8515 v 3.4762 L 24.1636,17.4835 Z M 76.4988,3.03356 c 0.1748,0 0.9284,0.28609 2.1845,0.89604 0.6772,0.32926 1.8951,0.58296 1.8951,1.17672 V 19.0164 L 76.7883,20.7545 72.594,18.7951 V 9.98592 l 4.0195,-1.73809 c 0.142,0.0162 1.4363,0.5074 1.4363,0.5074 V 5.94837 L 74.6966,4.55034 c -0.5461,0.03239 -1.1905,0.54518 -1.8459,0.65853 l 0.142,-0.55057 c 0,0 3.0255,-1.62474 3.5061,-1.62474 z m 10.6276,5.1603 3.7355,4.03754 -5.4612,3.9242 v 1.0688 c 0,0.2213 3.2166,1.6571 3.2166,1.6571 0,0 1.5947,-1.0634 2.2992,-0.6477 -0.0382,0.0485 -3.8501,2.4668 -3.8501,2.4668 l -4.0741,-1.7381 v -8.8632 z m -11.8891,1.73809 2.7524,1.23065 v 7.6865 h -0.0546 l -2.6978,-1.1767 z m 10.2234,0.16735 2.7361,2.8014 -2.7361,1.9648 z m 51.8163,7.8106 1.032,0.95 -2.07,1.9054 -1.949,-1.9054 V 5.95917 l 2.987,-2.85544 z M 121.363,2.74208 v 8.12912 l 2.987,-2.86087 2.239,2.19147 V 20.517 l -2.812,2.6935 h -0.06 V 11.5999 l -1.092,-1.0094 -1.262,1.0687 v 6.1103 l 1.092,1.0094 v 0.0594 l -2.009,1.9594 -1.956,-1.9054 V 5.54354 l 2.873,-2.74748 z m 8.558,0 h 0.06 l 1.95,1.90542 v 0.05398 l -2.01,1.9648 -2.01,-1.9648 z M 144.055,8.318 c 0.109,0 3.735,3.8756 3.79,4.0376 l -5.456,3.7568 v 1.5168 l 3.091,1.3656 c 0,0 1.622,-0.2105 2.195,-0.6963 l 0.825,0.1998 c -0.071,0.1025 -3.796,2.3264 -4.445,2.3264 -0.142,0 -2.928,-1.0418 -4.08,-1.7975 v -8.5771 c 0,-0.3832 4.069,-2.1321 4.08,-2.1321 z M 129.981,8.01033 h 0.055 l 1.78,1.73809 v 7.96718 l 1.092,1.0094 -2.064,1.9594 -1.955,-1.9055 v -7.9617 l -0.918,-0.84207 z m 12.462,2.21307 2.616,2.6288 -2.599,1.6355 z M 110.19393,1.3326628 c 0.13083,-0.075655 0.28507,-0.031793 0.28507,-0.031793 -0.10111,0.246471 -1.06211,0.7896186 -2.11133,1.4499623 -0.88094,0.5544296 -1.67112,1.1011333 -2.37267,1.8049077 -0.93279,0.9357468 -1.88783,2.0406293 -2.38983,3.1623067 -0.38557,0.8615253 -0.56753,1.8689224 -0.47717,3.2664535 0.12,1.8677 1.627,4.6367 3.386,5.6299 0.541,0.3023 2.06175,1.163956 3.85,1.2901 0.63382,0.04471 1.06059,0.03839 1.737,-0.03922 V 4.1563 c 0,-0.16733 -0.421,-1.05796 -0.819,-1.05796 -0.115,0 -0.284,0.20511 -0.284,0.33466 v 9.3652 c 0,0.3508 -0.334,0.8528 -1.956,1.9054 -1.66,1.0796 -2.173,1.4412 -2.353,1.4034 0.038,-0.1025 0.398,-0.387369 0.398,-0.5613 V 5.78644 c 0,-0.96081 1.442,-1.52758 2.704,-2.4668 1.57349,-1.1781475 2.60129,-1.6636329 3.0128,-1.8306694 0.0999,-0.046565 0.471,-0.082774 0.7172,-0.074751 1.38099,0.00563 2.244,1.62474 2.414,1.79207 0.32253,0.3225305 0.8703,0.4014558 1.321,0.28069 0.25685,-0.068822 0.803,-0.33467 1.147,-0.28069 -0.928,0.79348 -3.959,2.63952 -3.959,2.63952 -0.11928,0.066269 -0.32504,0.050594 -0.459,0 -0.32845,-0.1240477 -0.541,-0.31847 -0.923,-0.50739 V 17.677419 c 0.36771,-0.107577 0.90573,-0.335521 1.48913,-0.676251 0.48804,-0.285034 0.9203,-0.604261 1.21125,-0.831754 0.12291,-0.09611 0.17587,-0.134334 0.28662,-0.229714 0.0442,-0.03807 0.13375,-0.04125 0.175,0 0.0929,0.09287 0.0326,0.266788 0,0.394 -0.14849,0.57867 -0.49904,1.09705 -0.863,1.5708 -0.35655,0.4641 -0.82938,0.861428 -1.26899,1.213395 -1.48612,1.189846 -3.19035,1.781936 -5.39901,1.798605 -5.019,0.0323 -8.574,-3.514 -8.9565,-9.0144 -0.3823,-5.47332 3.5665,-9.97509 8.2135,-10.26657 0.677,-0.03778 1.507,0.0108 1.611,0 0.0816,-0.00974 0.35944,-0.1447191 0.63293,-0.3028672 z"
         fill="#002464"
         id="path1-8"
         style="stroke-width:0.155789"
         sodipodi:nodetypes="aaacaccssccsssaaacaascssscssccaaacsaacsssccsssascscccscssccccccccccccccccccccccccccccccccsccccccccsccccccccccccccccccccccccscsccccccccccscccsccccccccccccccccccccccccccccccccccccccccccccccccsccccccscssccccccccccccccscsasccscsssscccsccsccccsccsssaaasccccs" /></g></g><metadata
     id="metadata2"><rdf:RDF><cc:Work
         rdf:about=""><dc:title>Banco de Chile</dc:title><dc:subject><rdf:Bag><rdf:li>Banco de Chile</rdf:li><rdf:li>Logo</rdf:li><rdf:li>Logotipo</rdf:li><rdf:li>SVG</rdf:li><rdf:li>Illustrator</rdf:li><rdf:li>PNG</rdf:li><rdf:li>PDF</rdf:li><rdf:li>Transparente</rdf:li></rdf:Bag></dc:subject></cc:Work></rdf:RDF></metadata></svg>
